<?xml version="1.0" encoding="iso-8859-1"?>
<!-- Generator: Adobe Illustrator 16.0.0, SVG Export Plug-In . SVG Version: 6.00 Build 0)  -->
<!DOCTYPE svg PUBLIC "-//W3C//DTD SVG 1.1//EN" "http://www.w3.org/Graphics/SVG/1.1/DTD/svg11.dtd">
<svg version="1.1" id="Capa_1" xmlns="http://www.w3.org/2000/svg" xmlns:xlink="http://www.w3.org/1999/xlink" x="0px" y="0px"
	 width="956.576px" height="956.576px" viewBox="0 0 956.576 956.576" style="enable-background:new 0 0 956.576 956.576;"
	 xml:space="preserve">
<g>
	<g>
		<path d="M872.229,488.117c-2.34-10.113-14.376-14.392-22.574-8.025L682.53,609.877c-8.873,6.891-6.627,20.865,3.958,24.629
			l60.381,21.469c-25.05,38.842-58.31,71.949-97.652,96.928c-36.896,23.426-78.011,38.861-120.93,45.619V334.249h160.309
			c27.614,0,50-22.386,50-50c0-27.614-22.386-50-50-50H630.49c9.233-20.689,14.378-43.588,14.378-67.669
			C644.868,74.727,570.14,0,478.288,0s-166.58,74.728-166.58,166.58c0,24.081,5.145,46.98,14.378,67.669h-58.107
			c-27.613,0-50,22.386-50,50c0,27.614,22.387,50,50,50h160.31v464.272c-42.918-6.758-84.034-22.193-120.93-45.619
			c-39.344-24.979-72.602-58.088-97.652-96.928l60.381-21.469c10.585-3.764,12.831-17.738,3.958-24.629L106.922,480.092
			c-8.199-6.368-20.236-2.087-22.574,8.025l-47.68,206.16c-2.531,10.945,8.032,20.365,18.617,16.6l58.261-20.713
			c33.913,59.635,81.988,110.193,140.213,147.16c52.974,33.633,112.528,54.734,174.529,62.129v7.123c0,27.613,22.386,50,50,50
			s50-22.387,50-50v-7.123c62.001-7.395,121.557-28.496,174.53-62.129c58.225-36.969,106.299-87.525,140.213-147.16l58.26,20.713
			c10.585,3.764,21.148-5.654,18.617-16.6L872.229,488.117z M478.288,100c36.713,0,66.58,29.867,66.58,66.58
			c0,36.713-29.867,66.58-66.58,66.58c-36.712,0-66.58-29.867-66.58-66.58C411.708,129.867,441.576,100,478.288,100z"/>
	</g>
</g>
<g>
</g>
<g>
</g>
<g>
</g>
<g>
</g>
<g>
</g>
<g>
</g>
<g>
</g>
<g>
</g>
<g>
</g>
<g>
</g>
<g>
</g>
<g>
</g>
<g>
</g>
<g>
</g>
<g>
</g>
</svg>
