<?xml version="1.0" encoding="iso-8859-1"?>
<!-- Generator: Adobe Illustrator 18.0.0, SVG Export Plug-In . SVG Version: 6.00 Build 0)  -->
<!DOCTYPE svg PUBLIC "-//W3C//DTD SVG 1.1//EN" "http://www.w3.org/Graphics/SVG/1.1/DTD/svg11.dtd">
<svg version="1.1" id="Capa_1" xmlns="http://www.w3.org/2000/svg" xmlns:xlink="http://www.w3.org/1999/xlink" x="0px" y="0px"
	 viewBox="0 0 407.577 407.577" style="enable-background:new 0 0 407.577 407.577;" xml:space="preserve">
<path d="M406.555,127.15c-0.974-1.085-23.9-26.151-67.127-35.078c-1.404-6.782-4.936-13.552-10.577-20.238
	c-15.918-18.865-48.148-32.353-82.111-34.364c-35.258-2.08-66.809,8.103-88.837,28.693c-35.721,33.392-63.438,76.487-76.779,99.204
	c-4.727,8.049-11,14.883-18.646,20.312L1.684,228.852c-1.801,1.279-2.224,3.776-0.945,5.577c1.279,1.801,3.776,2.224,5.578,0.945
	l60.794-43.172c7.948-5.644,14.554-12.659,19.703-20.844c36.8,27.862,88.367,35.387,111.187,37.397
	c6.434,0.567,13.034,0.804,14.979,0.804c5.905,0,18.528-0.6,34.178-4.823c15.981-4.312,37.682-13.243,57.82-31.709
	c-11.244,26.302-26.384,45.926-48.863,64.529c-15.496,12.823-23.474,32.205-21.889,53.176c1.426,18.867,10.818,35.69,24.512,43.907
	c9.452,5.671,18.692,7.585,26.861,7.585c8.514,0,15.858-2.08,21.067-4.152c-2.672,9.826-5.948,18.937-9.968,26.403
	c-1.048,1.945-0.32,4.371,1.625,5.418c0.604,0.325,1.253,0.479,1.893,0.479c1.425,0,2.804-0.763,3.525-2.104
	c14.444-26.824,19.867-71.749,21.873-104.712c1.327-21.786,4.669-43.593,9.932-64.816c5.063-20.411,9.375-35.709,12.536-44.481
	l56.863-20.678c1.248-0.454,2.19-1.499,2.513-2.788C407.781,129.504,407.442,128.14,406.555,127.15z M163.366,72.009
	c20.409-19.079,49.844-28.507,82.901-26.552c31.881,1.887,61.897,14.266,76.469,31.537c6.468,7.666,9.604,15.268,9.359,22.647
	c-4.087,4.414-14.051,13.03-23.044,12.34c-3.073-0.236-8.376-3.433-13.99-6.817c-16.112-9.713-40.466-24.39-71.141-9.857
	c-11.837,5.606-24.345,12.579-37.587,19.962c-28.297,15.775-60.034,33.462-88.977,38.872
	C112.158,130.787,135.255,98.286,163.366,72.009z M290.893,114.904c0,5.433-4.42,9.852-9.853,9.852s-9.852-4.419-9.852-9.852
	c0-4.777,3.332-8.753,7.904-9.651c4.033,2.081,7.787,4.321,11.259,6.413C290.711,112.705,290.893,113.79,290.893,114.904z
	 M90.973,164.463c0.271-0.449,0.554-0.915,0.833-1.375c32.201-3.924,67.342-23.505,98.423-40.832
	c13.123-7.316,25.519-14.227,37.115-19.72c16.168-7.657,30.314-6.028,42.405-1.48c-4.025,3.272-6.56,8.252-6.56,13.848
	c0,9.844,8.008,17.852,17.852,17.852c9.276,0,16.917-7.113,17.767-16.171c3.535,1.875,6.684,3.146,9.63,3.373
	c6.801,0.528,13.339-2.291,18.617-5.713c-3.808,5.715-8.894,9.963-12.055,12.271c-1.735,1.267-17.417,14.375-29.99,15.3
	c-10.403,0.763-16.81-3.89-23.601-8.817c-7.65-5.55-15.562-11.288-28.223-8.123c-32.897,8.224-49.477,24.544-46.684,45.954
	c1.827,14.009,7.549,23.804,12.552,29.936C177.088,198.773,126.01,191.355,90.973,164.463z M211.04,201.524
	c-3.108-2.464-14.085-12.415-16.603-31.729c-1.556-11.922,4.241-28.046,40.689-37.158c9.049-2.262,14.579,1.754,21.586,6.837
	c7.3,5.297,15.595,11.296,28.884,10.32c11.618-0.854,23.264-8.732,28.399-12.65c0.699,0.572,1.542,1.242,2.493,1.974
	c-1.393,5.155-2.851,10.089-4.388,14.816C273.127,200.98,219.425,201.713,211.04,201.524z M327.781,196.814
	c-5.379,21.694-8.794,43.986-10.15,66.255c-1.01,16.597-3.314,41.876-8.503,65.033c-5.333,2.972-25.239,12.297-46.274-0.324
	c-11.503-6.902-19.416-21.329-20.649-37.649c-1.388-18.348,5.542-35.263,19.011-46.41c31.924-26.42,49.662-54.695,62.209-99.641
	c4.521,3.007,10.122,6.318,16.51,9.228C336.735,162.562,332.656,177.163,327.781,196.814z M345.085,146.836
	c-8.996-3.879-16.573-8.808-21.62-12.503c22.653-3.506,46.262-3.068,61.825-2.117L345.085,146.836z M328.172,125.593
	c4.972-5.229,9.924-12.402,11.463-21.229c0.23-1.323,0.376-2.648,0.443-3.973c24.515,5.516,41.991,16.633,51.673,24.226
	C377.518,123.487,352.951,122.439,328.172,125.593z"/>
<g>
</g>
<g>
</g>
<g>
</g>
<g>
</g>
<g>
</g>
<g>
</g>
<g>
</g>
<g>
</g>
<g>
</g>
<g>
</g>
<g>
</g>
<g>
</g>
<g>
</g>
<g>
</g>
<g>
</g>
</svg>
