<?xml version="1.0" encoding="iso-8859-1"?>
<!-- Generator: Adobe Illustrator 16.0.0, SVG Export Plug-In . SVG Version: 6.00 Build 0)  -->
<!DOCTYPE svg PUBLIC "-//W3C//DTD SVG 1.1//EN" "http://www.w3.org/Graphics/SVG/1.1/DTD/svg11.dtd">
<svg version="1.1" id="Capa_1" xmlns="http://www.w3.org/2000/svg" xmlns:xlink="http://www.w3.org/1999/xlink" x="0px" y="0px"
	 width="32px" height="32px" viewBox="0 0 32 32" style="enable-background:new 0 0 32 32;" xml:space="preserve">
<g>
	<path d="M27.924,3.038C23.22,3.14,17.688,10.616,17.37,11.059c-0.004,0.005-0.008,0.012-0.012,0.018
		c-0.398-0.203-0.979-0.089-1.019-0.271c-0.061-0.282,0.453-0.801,0.459-0.805c0.226-0.224,0.363-0.532,0.363-0.875
		c0-0.434-0.226-0.813-0.565-1.033c0.136-0.216,0.286-0.431,0.436-0.643c0.513-0.728,1.035-1.479,0.929-2.196
		c0-0.007,0.004-0.013,0.004-0.02c0-0.021-0.009-0.041-0.013-0.061c0-0.002,0-0.004,0-0.005h-0.001
		c-0.031-0.168-0.172-0.299-0.35-0.299c-0.201,0-0.364,0.163-0.364,0.364s0.163,0.364,0.364,0.364c0.045,0,0.088-0.012,0.129-0.026
		c-0.058,0.543-0.463,1.127-0.895,1.74c-0.155,0.221-0.312,0.444-0.454,0.669c-0.141-0.056-0.293-0.089-0.454-0.089
		c-0.186,0-0.359,0.043-0.517,0.117c-0.236-0.408-0.446-0.733-0.631-1.021c-0.391-0.603-0.647-1.003-0.786-1.638
		c0.018,0.003,0.034,0.011,0.054,0.011c0.201,0,0.363-0.163,0.363-0.364s-0.162-0.362-0.363-0.362c-0.201,0-0.363,0.163-0.363,0.362
		c0,0.048,0.01,0.093,0.026,0.134c0.132,0.843,0.428,1.306,0.869,1.987c0.184,0.284,0.392,0.607,0.625,1.011
		c-0.308,0.225-0.51,0.586-0.51,0.995c0,0.343,0.139,0.65,0.364,0.875c0.001,0.002,0.458,0.583,0.355,0.873
		c-0.065,0.188-0.515,0.171-0.831,0.496c-0.625-0.85-5.953-7.857-10.509-7.957C-0.131,2.06-0.735,1.693,0.7,5.952
		c1.436,4.259,1.84,9.628,6.162,9.175c-1.036,0.125-3.155,2.352-1.145,3.846c-0.627,1.955,0.742,2.504,2.144,2.646
		c-0.423,1.536,1.892,1.445,1.892,1.445s-4.329,6.632,0.44,6.816c1.909-0.094-1.179-3.868,0.675-5.729
		c0.085,0.865,0.617,1.034,1.342,1.016c0.625-0.015,2.313-6.324,2.727-9.764c0.083,0.369,0.165,0.757,0.239,1.161
		c0.397,2.17,0.61,4.732,0.754,6.186c0-1.125,0.307-3.801,0.771-6.22c0.108-0.566,0.228-1.117,0.346-1.633
		c0.388,3.408,2.11,9.88,2.743,9.896c0.726,0.019,1.257-0.15,1.342-1.016c1.854,1.86-1.233,5.635,0.675,5.729
		c4.771-0.185,0.439-6.816,0.439-6.816s2.315,0.091,1.894-1.444c1.4-0.142,2.771-0.69,2.144-2.646
		c2.011-1.495-0.108-3.721-1.145-3.846c4.321,0.454,4.727-4.916,6.161-9.174C32.734,1.318,32.131,1.685,27.924,3.038z M5.79,18.285
		c-0.222-0.059-0.529-0.328-0.522-0.895s0.552-0.983,0.67-1.087C6.056,16.199,6.011,18.343,5.79,18.285z M11.397,11.583
		c-0.675-0.26-3.033-0.601-2.642-0.844s1.964-0.344,3.052-0.342c1.089,0.002,1.817,0.854,2.17,1.02
		C14.328,11.583,12.075,11.845,11.397,11.583z M4.776,9.561c0.151-0.064,1.452,0.287,2.351,0.24
		c1.031-0.055,1.482-0.335,1.742-0.433c0.26-0.096,2.122,0.298,3.225,0.749c-1.688,0.138-2.677,0.102-3.428,0.381
		c-0.751,0.28-0.483,0.365-2.074,0.671C5.002,11.475,4.452,9.698,4.776,9.561z M5.529,7.069C5.931,7.412,6.44,8.162,6.907,8.408
		C7.373,8.653,8.39,9.197,8.39,9.197s-1.714,0.807-3.593,0C2.917,8.39,5.128,6.726,5.529,7.069z M12.373,9.724
		c-1.18-0.302-2.723-0.375-3.671-0.691C7.754,8.717,5.878,7.55,6.403,7.352C6.93,7.156,8.697,7.611,8.697,7.611
		S12.141,9.274,12.373,9.724z M9.569,6.743c0.595,0.224,1.383,1.188,1.732,1.658c0.349,0.47-3.54-1.367-4.471-3.192
		C8.021,5.421,8.976,6.52,9.569,6.743z M8.173,7.123c0,0-4.466,0.027-4.387-1.893C3.866,3.311,8.173,7.123,8.173,7.123z
		 M1.161,3.007C1.88,2.856,2.95,4.602,2.95,4.602S1.089,4.667,0.774,4.28C0.458,3.892,0.442,3.158,1.161,3.007z M1.953,5.663
		c0.541-0.256,1.72,0.926,1.72,0.926S2.208,6.994,1.886,6.746C1.562,6.498,1.411,5.918,1.953,5.663z M2.497,9.75
		C2.186,9.642,1.924,9.232,2.278,8.897C2.633,8.561,3.84,9.176,3.84,9.176S2.81,9.86,2.497,9.75z M3.912,12.403
		c-0.327-0.045-0.666-0.394-0.385-0.793c0.28-0.399,1.586-0.037,1.586-0.037S4.239,12.448,3.912,12.403z M5.935,12.894
		c-0.972-1.127,2.263-1.914,2.573-1.832c0.311,0.082,2.394,0.567,2.896,0.709C8.883,11.833,6.907,14.021,5.935,12.894z M9.97,12.271
		c0.438,0.711,1.275,1.032,1.68,1.226c-1.388,0.598-4.439,1.171-4.537,0.568C7.016,13.462,9.313,12.247,9.97,12.271z M9.305,14.547
		c1.13-0.479,3.388-1.002,4.095-0.829c0.707,0.172-2.758,1.542-3.454,1.761c-0.697,0.219-2.898,1.761-3.226,1.049
		C6.392,15.816,8.175,15.027,9.305,14.547z M7.207,17.091c0.717-0.569,5.154-2.379,5.735-2.358c0.393,0.236-2.963,3.31-4.147,4.053
		c-0.639,0.401-1.854,0.242-2.178-0.265C6.342,18.089,6.876,17.352,7.207,17.091z M7.224,20.742
		c-0.188,0.123-0.555,0.185-0.864-0.15c-0.309-0.336-0.158-0.965-0.134-1.109C6.251,19.336,7.412,20.619,7.224,20.742z M7.8,20.214
		c-0.146-0.687,2.39-1.852,3.124-2.608c0.734-0.757,3.05-3.52,3.26-3.519c0.209,0.001-1.33,3.307-1.924,4.215
		C11.665,19.21,8.2,21.929,7.8,20.214z M9.257,22.435c-0.119,0.125-0.384,0.234-0.674,0.038c-0.291-0.197-0.287-0.695-0.294-0.809
		C8.282,21.552,9.376,22.31,9.257,22.435z M9.683,21.079c0.658-0.811,2.488-2.119,3.034-2.952c-0.011,0.204-0.682,2.539-1.421,3.632
		C10.557,22.85,9.024,21.891,9.683,21.079z M10.901,23.558c-0.312,0.106-0.771-0.053-0.701-0.535
		c0.063-0.426,1.012-0.682,1.237-0.737c-0.002-0.002-0.004-0.005-0.007-0.008c-0.243-0.19,0.056-0.003,0.056-0.003
		s-0.019,0.004-0.049,0.011C11.662,22.491,11.211,23.452,10.901,23.558z M12.236,23.786c-1.439-0.284,0.353-4.214,0.807-5.926
		c0.455-1.712,1.087-3.116,1.192-2.963C14.524,16.082,12.898,23.932,12.236,23.786z M13.177,13.196
		c-1.357,0.305-3.375-0.62-2.719-1.014c0.655-0.395,3.557-0.39,3.77-0.244c0.024,0.017,0.047,0.043,0.066,0.076
		c-0.015,0.091-0.024,0.188-0.026,0.299c-0.001,0.061,0.005,0.134,0.014,0.212C14.156,12.778,13.841,13.046,13.177,13.196z
		 M26.063,15.928c0.118,0.104,0.662,0.521,0.67,1.087c0.007,0.565-0.301,0.836-0.522,0.895S25.944,15.823,26.063,15.928z
		 M28.213,4.855c0.08,1.919-4.386,1.893-4.386,1.893S28.134,2.935,28.213,4.855z M27.203,8.822c-1.88,0.807-3.593,0-3.593,0
		s1.017-0.544,1.481-0.79c0.468-0.245,0.978-0.995,1.378-1.338C26.872,6.35,29.083,8.015,27.203,8.822z M25.408,10.793
		c-1.591-0.306-1.323-0.39-2.075-0.67c-0.75-0.279-1.738-0.243-3.427-0.381c1.103-0.451,2.965-0.845,3.225-0.749
		c0.261,0.096,0.711,0.378,1.741,0.433c0.899,0.046,2.2-0.305,2.352-0.24C27.548,9.323,26.998,11.1,25.408,10.793z M20.698,8.025
		c0.35-0.471,1.137-1.437,1.731-1.658c0.594-0.222,1.549-1.32,2.738-1.534C24.238,6.659,20.351,8.495,20.698,8.025z M23.304,7.236
		c0,0,1.768-0.455,2.293-0.258s-1.351,1.364-2.299,1.68c-0.947,0.315-2.49,0.39-3.671,0.691C19.859,8.899,23.304,7.236,23.304,7.236
		z M18.023,11.042c0.353-0.166,1.081-1.018,2.169-1.021c1.088-0.002,2.662,0.1,3.053,0.342c0.392,0.242-1.967,0.583-2.644,0.845
		S17.671,11.208,18.023,11.042z M17.723,11.615c0.016-0.021,0.032-0.04,0.051-0.052c0.212-0.146,3.113-0.15,3.77,0.243
		s-1.36,1.318-2.72,1.014c-0.714-0.161-1.023-0.458-1.128-0.727c0.02-0.113,0.031-0.207,0.035-0.277
		C17.732,11.743,17.729,11.677,17.723,11.615z M22.029,11.896c0.657-0.025,2.955,1.19,2.858,1.794
		c-0.099,0.603-3.149,0.028-4.537-0.569C20.755,12.928,21.592,12.608,22.029,11.896z M19.765,23.411
		c-0.662,0.146-2.288-7.704-1.999-8.889c0.104-0.152,0.736,1.251,1.191,2.963C19.411,19.196,21.203,23.126,19.765,23.411z
		 M21.1,23.183c-0.311-0.106-0.763-1.067-0.536-1.272c-0.031-0.007-0.049-0.011-0.049-0.011s0.298-0.187,0.056,0.004
		c-0.003,0.002-0.005,0.005-0.007,0.007c0.225,0.056,1.175,0.312,1.236,0.737C21.87,23.13,21.41,23.289,21.1,23.183z M20.704,21.383
		c-0.739-1.093-1.41-3.428-1.422-3.632c0.546,0.833,2.377,2.142,3.035,2.952C22.977,21.516,21.443,22.475,20.704,21.383z
		 M23.417,22.098c-0.29,0.196-0.555,0.087-0.674-0.038c-0.12-0.125,0.975-0.883,0.968-0.771
		C23.704,21.401,23.708,21.9,23.417,22.098z M19.74,17.927c-0.594-0.909-2.133-4.214-1.924-4.215s2.524,2.761,3.26,3.519
		s3.271,1.922,3.124,2.608C23.8,21.554,20.335,18.835,19.74,17.927z M25.773,19.107c0.024,0.144,0.176,0.773-0.134,1.107
		c-0.311,0.336-0.677,0.274-0.864,0.151C24.588,20.244,25.749,18.961,25.773,19.107z M25.383,18.146
		c-0.322,0.507-1.538,0.667-2.179,0.265c-1.185-0.744-4.539-3.816-4.146-4.053c0.582-0.021,5.019,1.789,5.735,2.356
		C25.124,16.977,25.658,17.714,25.383,18.146z M25.28,16.152c-0.327,0.712-2.528-0.83-3.226-1.049
		c-0.696-0.219-4.161-1.589-3.454-1.761c0.707-0.173,2.965,0.351,4.095,0.829C23.824,14.652,25.608,15.441,25.28,16.152z
		 M26.064,12.519c-0.973,1.127-2.947-1.061-5.469-1.123c0.503-0.142,2.586-0.627,2.896-0.709
		C23.802,10.605,27.037,11.392,26.064,12.519z M28.088,12.028c-0.326,0.045-1.2-0.831-1.2-0.831s1.305-0.363,1.586,0.037
		C28.754,11.634,28.415,11.983,28.088,12.028z M29.502,9.375C29.19,9.485,28.16,8.8,28.16,8.8s1.207-0.614,1.562-0.279
		C30.076,8.857,29.814,9.266,29.502,9.375z M30.114,6.371c-0.322,0.248-1.787-0.157-1.787-0.157s1.178-1.182,1.72-0.926
		S30.438,6.123,30.114,6.371z M31.227,3.905c-0.314,0.387-2.177,0.322-2.177,0.322s1.07-1.747,1.789-1.595
		C31.559,2.783,31.541,3.517,31.227,3.905z"/>
</g>
<g>
</g>
<g>
</g>
<g>
</g>
<g>
</g>
<g>
</g>
<g>
</g>
<g>
</g>
<g>
</g>
<g>
</g>
<g>
</g>
<g>
</g>
<g>
</g>
<g>
</g>
<g>
</g>
<g>
</g>
</svg>
