<?xml version="1.0" encoding="iso-8859-1"?>
<!-- Generator: Adobe Illustrator 16.0.0, SVG Export Plug-In . SVG Version: 6.00 Build 0)  -->
<!DOCTYPE svg PUBLIC "-//W3C//DTD SVG 1.1//EN" "http://www.w3.org/Graphics/SVG/1.1/DTD/svg11.dtd">
<svg version="1.1" id="Capa_1" xmlns="http://www.w3.org/2000/svg" xmlns:xlink="http://www.w3.org/1999/xlink" x="0px" y="0px"
	 width="98.666px" height="98.666px" viewBox="0 0 98.666 98.666" style="enable-background:new 0 0 98.666 98.666;"
	 xml:space="preserve">
<g>
	<g>
		<path d="M58.645,37.137c-0.491-0.506-0.957-1.046-1.421-1.587c-1.035,0.796-2.108,1.493-3.303,2.033
			c1.205,1.672,2.447,3.301,4.071,4.449c1.639,1.192,3.604,1.833,5.622,1.995c1.639,0.167,3.34-0.085,4.596-0.937
			c-1.008-0.235-1.994-0.554-2.944-0.975C62.679,40.997,60.489,39.161,58.645,37.137z"/>
		<path d="M71.372,38.908c-2.894-1.161-5.446-2.948-7.802-4.875c-0.896-0.724-1.765-1.471-2.637-2.208
			c-0.945,1.205-1.993,2.324-3.17,3.294c0.472,0.506,0.942,1.012,1.424,1.501c1.872,1.932,4.006,3.6,6.463,4.58
			c2.449,0.995,5.13,1.303,7.774,1.162c1.34-0.088,2.675-0.142,3.79-0.624c0.86-0.337,1.587-0.881,2.013-1.585
			C76.55,40.359,73.834,39.901,71.372,38.908z"/>
		<path d="M77.136,34.443c-3.265-0.924-6.314-2.388-9.239-3.998c-1.474-0.775-2.898-1.665-4.331-2.517
			c-0.056,0.092-0.109,0.185-0.164,0.276c-0.636,1.055-1.32,2.098-2.064,3.094c0.901,0.721,1.791,1.45,2.699,2.146
			c2.379,1.842,4.912,3.506,7.692,4.534c2.771,1.03,5.777,1.342,8.656,0.792c1.506-0.229,2.87-0.584,3.985-1.388
			c0.854-0.593,1.468-1.434,1.854-2.393C83.184,35.626,80.033,35.265,77.136,34.443z"/>
		<path d="M81.27,29.04c-3.472-0.627-6.812-1.701-10.088-2.887c-1.83-0.638-3.633-1.383-5.441-2.066
			c-0.594,1.122-1.216,2.223-1.853,3.302c1.45,0.815,2.873,1.661,4.362,2.396c2.938,1.526,5.972,2.886,9.144,3.7
			c3.15,0.812,6.501,1.03,9.546,0.056c1.517-0.479,2.93-1.245,4.177-2.231c0.882-0.76,1.574-1.92,1.664-3.056
			c-0.3,0.137-0.605,0.262-0.913,0.375C88.396,29.852,84.713,29.641,81.27,29.04z"/>
		<path d="M98.615,13.696c-1.438,2.083-3.649,3.443-5.853,4.398c-0.423,0.105-0.87,0.207-1.345,0.305
			c-1.216,0.247-2.604,0.423-4.116,0.495c-1.513,0.067-3.15,0.016-4.862-0.185c-1.712-0.206-3.497-0.562-5.3-1.086
			c-1.803-0.525-3.626-1.207-5.421-2.038l-0.676-0.308l-0.667-0.333C69.918,14.713,69.46,14.482,69,14.25
			c-0.975-0.487-1.979-0.922-3.104-1.246c-0.564-0.157-1.159-0.288-1.82-0.323c-0.654-0.029-1.405,0.035-2.142,0.372
			c-0.364,0.168-0.709,0.401-0.998,0.672c-0.288,0.273-0.521,0.577-0.705,0.881c-0.373,0.611-0.564,1.216-0.709,1.787
			c-0.274,1.145-0.363,2.202-0.434,3.226c-0.062,1.022-0.099,2.008-0.149,2.966c-0.089,1.913-0.241,3.721-0.583,5.38
			c-0.334,1.658-0.866,3.161-1.586,4.429c-0.357,0.635-0.755,1.215-1.186,1.728c-0.422,0.521-0.873,0.98-1.327,1.381
			c-0.915,0.798-1.824,1.389-2.605,1.821c-0.532,0.292-0.999,0.52-1.386,0.698V24.633c2.566-0.443,4.522-2.675,4.522-5.369
			c0-3.012-2.441-5.455-5.455-5.455c-3.013,0-5.455,2.443-5.455,5.455c0,2.694,1.955,4.926,4.523,5.369v13.387
			c-0.387-0.178-0.854-0.406-1.385-0.698c-0.782-0.433-1.692-1.023-2.606-1.821c-0.455-0.401-0.906-0.859-1.327-1.381
			c-0.431-0.513-0.828-1.093-1.185-1.728c-0.72-1.268-1.251-2.771-1.586-4.429c-0.342-1.659-0.493-3.467-0.583-5.38
			c-0.05-0.958-0.087-1.944-0.149-2.966c-0.07-1.024-0.16-2.081-0.433-3.226c-0.146-0.571-0.338-1.176-0.709-1.787
			c-0.185-0.304-0.417-0.608-0.705-0.881c-0.289-0.271-0.634-0.504-0.998-0.672c-0.737-0.337-1.489-0.401-2.143-0.372
			c-0.661,0.035-1.256,0.166-1.82,0.323c-1.127,0.324-2.131,0.759-3.106,1.246c-0.46,0.232-0.918,0.463-1.376,0.694l-0.667,0.333
			l-0.676,0.308c-1.793,0.831-3.617,1.513-5.42,2.038c-1.803,0.524-3.588,0.88-5.3,1.086c-1.712,0.201-3.35,0.252-4.862,0.185
			c-1.513-0.072-2.9-0.248-4.117-0.495c-0.473-0.098-0.921-0.199-1.343-0.305c-2.204-0.955-4.415-2.316-5.854-4.398
			c-0.119,1.07-0.027,2.182,0.24,3.243c0.376,1.523,1.718,2.908,3.159,3.801c3.029,1.821,6.812,2.246,10.438,2.307
			c5.804-0.005,11.622-0.899,17.293-2.312c-0.056-0.104-0.108-0.32-0.157-0.599c-0.431-1-0.821-2.015-1.169-3.041
			c0.324-0.155,0.648-0.31,0.974-0.464c0.882-0.409,1.79-0.801,2.661-1.037c0.863-0.245,1.721-0.297,2.125-0.097
			c0.205,0.094,0.367,0.234,0.539,0.506c0.166,0.266,0.313,0.642,0.427,1.055c0.228,0.836,0.337,1.803,0.437,2.77
			c0.092,0.993,0.182,1.974,0.27,2.939c0.101,0.979,0.217,1.954,0.374,2.91c0.163,0.954,0.366,1.889,0.623,2.791
			c0.26,0.899,0.58,1.763,0.954,2.571c0.378,0.807,0.817,1.556,1.299,2.229c0.487,0.671,1.014,1.268,1.559,1.782
			c0.549,0.511,1.113,0.942,1.664,1.305c1.101,0.731,2.153,1.177,3.026,1.479c0.633,0.225,1.178,0.364,1.613,0.463v0.561
			c-0.675-0.203-1.424-0.442-1.574-0.479c-0.463-0.106-0.931-0.289-1.381-0.483c-0.002,0.002-0.004,0.004-0.005,0.007
			c-1.065,1.604-2.205,3.271-3.743,4.579c2.329,0.505,4.822,0.43,6.35-1.433c0.123-0.138,0.24-0.282,0.354-0.431v2.327
			c-0.366-0.076-0.879-0.049-1.388,0.018c-1.141,0.151-1.546,1.255-1.881,1.537c-2.346,1.969-5.904,3.841-5.05,7.011
			c0.769,2.854,4.107,3.662,6.67,4.641c-1.739,0.811-4.853,1.942-4.813,3.974c0.043,2.223,2.451,3.188,4.333,4.074
			c-1.461,0.674-3.158,1.586-3.13,3.028c0.032,1.652,1.508,2.507,2.953,3.201c-1.16,0.576-2.326,1.34-2.304,2.492
			c0.027,1.408,1.193,2.157,2.399,2.757c-0.861,0.47-1.641,1.082-1.624,1.985c0.025,1.318,1.167,1.949,2.266,2.486
			c-0.714,0.562-1.4,1.294-1.334,2.005c0.099,1.659,2.818,2.964,2.901,2.99v0.841l1.864,0.009v-0.853
			c0.077-0.025,2.739-1.281,2.887-2.987c0.065-0.711-0.62-1.444-1.334-2.005c1.099-0.537,2.241-1.168,2.266-2.486
			c0.019-0.903-0.762-1.516-1.624-1.985c1.206-0.601,2.373-1.35,2.399-2.757c0.021-1.152-1.145-1.917-2.305-2.492
			c1.445-0.694,2.922-1.549,2.953-3.201c0.028-1.441-1.668-2.354-3.13-3.028c1.882-0.887,4.29-1.852,4.333-4.074
			c0.039-2.031-3.074-3.164-4.812-3.974c2.562-0.979,5.9-1.787,6.67-4.641c0.854-3.17-2.704-5.042-5.05-7.011
			c-0.335-0.282-0.74-1.386-1.882-1.537c-0.501-0.066-1.008-0.093-1.373-0.021v-2.323c0.113,0.149,0.231,0.293,0.354,0.431
			c1.527,1.862,4.021,1.938,6.35,1.433c-1.54-1.309-2.679-2.975-3.743-4.579c-0.002-0.003-0.004-0.005-0.005-0.007
			c-0.451,0.194-0.919,0.377-1.382,0.483c-0.149,0.036-0.898,0.276-1.574,0.478v-0.561c0.437-0.099,0.979-0.239,1.613-0.463
			c0.874-0.301,1.926-0.748,3.026-1.479c0.551-0.363,1.115-0.794,1.664-1.305c0.546-0.514,1.071-1.111,1.559-1.782
			c0.482-0.673,0.92-1.422,1.299-2.229c0.375-0.808,0.694-1.671,0.955-2.571c0.256-0.901,0.459-1.836,0.622-2.791
			c0.156-0.957,0.273-1.931,0.374-2.91c0.088-0.965,0.179-1.946,0.271-2.939c0.1-0.967,0.209-1.934,0.437-2.77
			c0.113-0.413,0.261-0.789,0.427-1.055c0.171-0.272,0.333-0.412,0.539-0.506c0.404-0.2,1.263-0.148,2.125,0.097
			c0.872,0.236,1.778,0.628,2.661,1.037c0.325,0.155,0.65,0.31,0.976,0.464c-0.35,1.026-0.739,2.04-1.17,3.041
			c-0.049,0.279-0.101,0.495-0.156,0.599c5.67,1.412,11.488,2.306,17.293,2.312c3.626-0.061,7.41-0.485,10.438-2.307
			c1.441-0.893,2.783-2.277,3.16-3.801C98.644,15.878,98.733,14.767,98.615,13.696z M41.922,50.445
			c0.742-2.714,4.702-3.937,6.48-6.15v10.518C46.549,54.078,41.269,52.834,41.922,50.445z M43.833,60.129
			c0.268-0.667,1.607-1.204,2.196-1.508c0.718-0.372,2.314-1.187,2.374-1.243v5.833C48.354,63.169,43.422,61.155,43.833,60.129z
			 M45.03,67.269c0.205-0.512,1.35-0.963,1.801-1.197c0.52-0.271,1.05-0.52,1.571-0.787v4.187
			C47.414,69.014,44.778,67.896,45.03,67.269z M45.675,72.993c0.119-0.296,1.113-0.755,1.481-0.946
			c0.412-0.214,0.832-0.414,1.246-0.623v3.257C47.525,74.273,45.523,73.372,45.675,72.993z M48.042,82.693
			c-0.186-0.136-0.374-0.28-0.528-0.451c-0.024-0.027-0.042-0.048-0.058-0.067c0.171-0.179,0.545-0.484,0.7-0.612
			c0.081-0.066,0.165-0.126,0.247-0.189v1.562C48.281,82.856,48.159,82.779,48.042,82.693z M51.14,82.243
			c-0.155,0.171-0.344,0.315-0.528,0.451c-0.112,0.082-0.229,0.156-0.345,0.231v-1.542c0.076,0.06,0.155,0.116,0.231,0.179
			c0.155,0.128,0.529,0.435,0.7,0.612C51.182,82.195,51.164,82.216,51.14,82.243z M50.267,78.82v-2.116
			c0.28,0.14,1.838,0.63,1.858,1.042C52.146,78.158,50.591,78.659,50.267,78.82z M46.516,77.703
			c0.021-0.412,1.578-0.902,1.859-1.042v2.117C48.05,78.616,46.495,78.115,46.516,77.703z M52.979,72.993
			c0.15,0.377-1.828,1.271-2.713,1.681v-3.241c0.409,0.207,0.823,0.404,1.23,0.615C51.866,72.238,52.86,72.697,52.979,72.993z
			 M53.623,67.269c0.251,0.625-2.357,1.734-3.356,2.195v-4.173c0.517,0.266,1.042,0.513,1.557,0.779
			C52.273,66.304,53.418,66.757,53.623,67.269z M52.625,58.621c0.588,0.305,1.929,0.841,2.196,1.508
			c0.411,1.025-4.51,3.033-4.555,3.071V57.39C50.322,57.441,51.906,58.25,52.625,58.621z M56.731,50.445
			c0.651,2.382-4.599,3.626-6.465,4.362V44.314C52.051,46.516,55.991,47.738,56.731,50.445z"/>
		<path d="M95.855,21.799c-3.446,1.95-7.358,2.248-11.078,2.242c-5.987-0.142-11.865-1.188-17.594-2.759
			c-0.103,0.186-0.209,0.369-0.314,0.553c-0.271,0.571-0.554,1.137-0.844,1.699c1.807,0.636,3.585,1.324,5.404,1.909
			c3.281,1.104,6.61,2.085,10.004,2.614c3.365,0.515,6.892,0.598,10-0.591c1.538-0.599,2.922-1.535,4.01-2.753
			c0.982-0.904,1.215-2.071,0.971-3.277C96.23,21.562,96.043,21.685,95.855,21.799z"/>
		<path d="M44.747,37.584c-1.194-0.541-2.268-1.237-3.302-2.033c-0.464,0.541-0.931,1.081-1.421,1.587
			c-1.845,2.023-4.034,3.858-6.62,4.979c-0.951,0.42-1.938,0.74-2.945,0.975c1.255,0.851,2.957,1.104,4.596,0.937
			c2.017-0.162,3.983-0.802,5.623-1.995C42.299,40.884,43.542,39.255,44.747,37.584z"/>
		<path d="M39.48,36.622c0.481-0.49,0.952-0.995,1.424-1.501c-1.177-0.971-2.225-2.089-3.17-3.294
			c-0.873,0.737-1.743,1.484-2.637,2.208c-2.356,1.926-4.909,3.714-7.802,4.875c-2.461,0.994-5.179,1.452-7.856,1.246
			c0.426,0.704,1.152,1.248,2.012,1.585c1.116,0.482,2.452,0.535,3.79,0.624c2.646,0.142,5.327-0.167,7.775-1.162
			C35.475,40.222,37.609,38.553,39.48,36.622z"/>
		<path d="M26.938,37.98c2.781-1.028,5.313-2.692,7.693-4.534c0.908-0.697,1.798-1.425,2.699-2.146
			c-0.745-0.997-1.429-2.04-2.064-3.094c-0.055-0.091-0.109-0.184-0.164-0.276c-1.432,0.852-2.857,1.742-4.33,2.517
			c-2.926,1.61-5.976,3.074-9.241,3.998c-2.897,0.821-6.048,1.183-9.089,0.548c0.386,0.959,1,1.8,1.854,2.393
			c1.115,0.804,2.48,1.16,3.985,1.388C21.161,39.322,24.167,39.009,26.938,37.98z"/>
		<path d="M21.274,33.483c3.172-0.814,6.207-2.174,9.144-3.7c1.489-0.735,2.913-1.58,4.363-2.396
			c-0.636-1.079-1.259-2.18-1.853-3.302c-1.809,0.683-3.61,1.428-5.441,2.066c-3.276,1.187-6.618,2.26-10.088,2.887
			c-3.445,0.602-7.126,0.813-10.599-0.413c-0.308-0.113-0.613-0.237-0.913-0.375c0.089,1.136,0.782,2.296,1.664,3.056
			c1.247,0.986,2.661,1.752,4.177,2.231C14.773,34.514,18.123,34.295,21.274,33.483z"/>
		<path d="M17.235,28.058c3.393-0.529,6.722-1.511,10.003-2.614c1.818-0.585,3.597-1.272,5.404-1.909
			c-0.291-0.562-0.572-1.128-0.844-1.699c-0.105-0.185-0.212-0.368-0.314-0.553c-5.729,1.571-11.606,2.617-17.594,2.759
			c-3.719,0.006-7.632-0.292-11.078-2.242c-0.189-0.116-0.375-0.237-0.56-0.363c-0.245,1.206-0.011,2.373,0.97,3.277
			c1.09,1.218,2.473,2.154,4.011,2.753C10.343,28.655,13.869,28.572,17.235,28.058z"/>
	</g>
</g>
<g>
</g>
<g>
</g>
<g>
</g>
<g>
</g>
<g>
</g>
<g>
</g>
<g>
</g>
<g>
</g>
<g>
</g>
<g>
</g>
<g>
</g>
<g>
</g>
<g>
</g>
<g>
</g>
<g>
</g>
</svg>
