<?xml version="1.0" encoding="iso-8859-1"?>
<!-- Generator: Adobe Illustrator 17.1.0, SVG Export Plug-In . SVG Version: 6.00 Build 0)  -->
<!DOCTYPE svg PUBLIC "-//W3C//DTD SVG 1.1//EN" "http://www.w3.org/Graphics/SVG/1.1/DTD/svg11.dtd">
<svg version="1.1" id="Capa_1" xmlns="http://www.w3.org/2000/svg" xmlns:xlink="http://www.w3.org/1999/xlink" x="0px" y="0px"
	 viewBox="0 0 248.658 248.658" style="enable-background:new 0 0 248.658 248.658;" xml:space="preserve">
<path style="fill:#000002;" d="M227.888,213.785h-9.839v-22.843c0-6.341-5.159-11.5-11.5-11.5h-75.72v-23.155h4.411
	c0.482,0,14.99,0.029,29.557,0.06c14.699,0.029,29.457,0.06,29.951,0.06c25.984,0,47.125-21.141,47.125-47.125
	s-21.141-47.125-47.125-47.125c-2.305,0-4.591,0.166-6.848,0.497C185.451,27.694,156.227,0,120.656,0
	C87.803,0,59.922,23.91,54.298,55.61C27.847,57.1,6.785,79.091,6.785,105.908c0,27.779,22.6,50.379,50.379,50.379h60.665v23.155
	h-75.72c-6.341,0-11.5,5.159-11.5,11.5v22.843H20.77c-6.341,0-11.5,5.159-11.5,11.5v11.873c0,6.341,5.159,11.5,11.5,11.5h32.679
	c6.341,0,11.5-5.159,11.5-11.5v-11.873c0-6.341-5.159-11.5-11.5-11.5h-9.84v-21.343h74.22v21.343h-9.839
	c-6.341,0-11.5,5.159-11.5,11.5v11.873c0,6.341,5.159,11.5,11.5,11.5h32.678c6.341,0,11.5-5.159,11.5-11.5v-11.873
	c0-6.341-5.159-11.5-11.5-11.5h-9.839v-21.343h74.22v21.343h-9.839c-6.341,0-11.5,5.159-11.5,11.5v11.873
	c0,6.341,5.159,11.5,11.5,11.5h32.678c6.341,0,11.5-5.159,11.5-11.5v-11.873C239.388,218.944,234.228,213.785,227.888,213.785z
	 M21.785,105.908c0-19.508,15.871-35.379,35.379-35.379c0.956,0,1.97,0.048,3.097,0.146l7.603,0.661l0.529-7.613
	C70.289,36.401,93.246,15,120.656,15c28.899,0,52.41,23.511,52.41,52.41c0,1.325-0.063,2.746-0.195,4.34l-0.987,11.97l11.19-4.367
	c3.733-1.457,7.662-2.196,11.675-2.196c17.714,0,32.125,14.411,32.125,32.125s-14.411,32.125-32.125,32.125
	c-0.494,0-15.236-0.03-29.92-0.06c-14.582-0.03-29.105-0.06-29.588-0.06H57.164C37.656,141.287,21.785,125.416,21.785,105.908z
	 M51.949,235.658H22.27v-8.873h29.679V235.658z M139.168,235.658H109.49v-8.873h29.678V235.658z M226.388,235.658H196.71v-8.873
	h29.678V235.658z"/>
<g>
</g>
<g>
</g>
<g>
</g>
<g>
</g>
<g>
</g>
<g>
</g>
<g>
</g>
<g>
</g>
<g>
</g>
<g>
</g>
<g>
</g>
<g>
</g>
<g>
</g>
<g>
</g>
<g>
</g>
</svg>
