<?xml version="1.0" encoding="iso-8859-1"?>
<!-- Generator: Adobe Illustrator 16.0.0, SVG Export Plug-In . SVG Version: 6.00 Build 0)  -->
<!DOCTYPE svg PUBLIC "-//W3C//DTD SVG 1.1//EN" "http://www.w3.org/Graphics/SVG/1.1/DTD/svg11.dtd">
<svg version="1.1" id="Capa_1" xmlns="http://www.w3.org/2000/svg" xmlns:xlink="http://www.w3.org/1999/xlink" x="0px" y="0px"
	 width="31.463px" height="31.463px" viewBox="0 0 31.463 31.463" style="enable-background:new 0 0 31.463 31.463;"
	 xml:space="preserve">
<g>
	<path d="M31.463,17.562l-7.834-3.946V5.437l0,0l0,0l-7.876-3.97L7.876,5.436v8.199L0,17.604v8.424l7.876,3.969l7.877-3.969v-0.021
		l7.833,3.948l7.877-3.971V17.562L31.463,17.562L31.463,17.562z M15.753,2.716l5.399,2.72l-5.399,2.721l-5.398-2.721L15.753,2.716z
		 M7.876,20.325l-5.398-2.722l5.398-2.72l5.399,2.72L7.876,20.325z M23.587,20.283l-5.397-2.721l5.397-2.721l5.399,2.721
		L23.587,20.283z"/>
</g>
<g>
</g>
<g>
</g>
<g>
</g>
<g>
</g>
<g>
</g>
<g>
</g>
<g>
</g>
<g>
</g>
<g>
</g>
<g>
</g>
<g>
</g>
<g>
</g>
<g>
</g>
<g>
</g>
<g>
</g>
</svg>
