<?xml version="1.0" encoding="iso-8859-1"?>
<!-- Generator: Adobe Illustrator 16.0.0, SVG Export Plug-In . SVG Version: 6.00 Build 0)  -->
<!DOCTYPE svg PUBLIC "-//W3C//DTD SVG 1.1//EN" "http://www.w3.org/Graphics/SVG/1.1/DTD/svg11.dtd">
<svg version="1.1" id="Capa_1" xmlns="http://www.w3.org/2000/svg" xmlns:xlink="http://www.w3.org/1999/xlink" x="0px" y="0px"
	 width="304.37px" height="304.37px" viewBox="0 0 304.37 304.37" style="enable-background:new 0 0 304.37 304.37;"
	 xml:space="preserve">
<g>
	<g>
		<g>
			<path d="M128.729,29.984c-4.896-7.955-13.464-9.792-21.42-4.283c-5.508,3.672-7.344,9.18-9.18,15.3
				c-4.284,13.464-6.12,25.092-14.688,37.332v0.612c-14.688,1.836-29.988-14.076-44.676-4.284
				c-9.792,6.12-9.792,19.584-4.284,28.764c10.404,17.136,53.856,23.868,67.932,6.12C121.997,92.409,144.027,55.687,128.729,29.984z
				 M67.527,108.321c-10.404-1.225-31.824-5.509-26.928-20.809c4.284-14.076,23.868-1.224,33.048-0.612
				c4.896,0.612,8.568-0.611,12.24-2.447c2.448,0.611,4.896,0,6.12-3.061c3.672-9.18,5.508-19.584,7.956-29.376
				c0.612-3.672,0.612-9.792,3.06-12.852c13.464-8.568,20.196-8.568,20.196,0.611c0.612,2.448,0.612,5.509,0,7.956
				c-0.612,18.36-7.956,35.496-19.584,48.96c-1.224-0.611-2.448-0.611-3.06,0.612C91.396,107.708,80.993,109.543,67.527,108.321z"/>
			<path d="M301.312,249.692c0-1.225-0.61-1.836-1.224-3.061c-4.284-4.896-10.404-14.076-17.136-7.956
				c-3.062,3.061-6.12,7.345-8.568,11.017c-1.836,1.836-3.06,4.284-4.284,6.12c0,0,0-0.612-0.61-0.612
				c3.06-4.283,5.508-9.18,7.344-13.464c1.224-1.225,1.224-3.672,0-5.508c-3.06-3.673-7.344-11.017-12.852-9.181
				c-2.448,0.611-4.284,3.061-6.732,4.896c-2.448,2.448-5.508,4.896-7.956,6.731c-2.448-1.836-4.284-4.896-6.731-6.731
				c3.061-2.447,6.119-5.508,8.567-8.567c4.284-4.284,9.18-8.567,13.464-13.464c1.226-1.837,1.836-4.284,0-6.12
				c-4.284-3.672-7.344-7.956-12.239-11.017c-0.611-0.611-1.225-0.611-1.225-0.611c-1.224-1.225-3.06-1.836-4.896-1.225
				c-7.346,3.061-12.854,11.017-17.748,16.523c-5.51,5.508-10.404,10.403-15.912,15.912c-30.602-36.107-61.202-72.216-89.966-110.16
				c29.376-21.42,41.616-83.232,7.956-106.488c-14.076-9.792-32.436-7.344-45.288,4.284c-12.24,11.628-15.3,27.54-12.852,42.84
				C45.497,33.042,3.269,52.014,0.208,87.51c-1.836,19.584,8.568,37.944,26.316,46.512c21.42,10.404,45.9,4.896,67.32-3.672
				c0,0,0,0.612,0.612,0.612c55.08,51.408,91.8,119.339,148.716,168.299c3.062,3.061,7.956-1.836,4.896-4.896
				c-51.408-53.855-89.964-119.951-148.718-166.463c0-0.612-0.612-1.225-1.224-0.612l0,0c-0.612,0-1.836,0-2.448,0.612
				c-29.376,5.508-75.276,8.567-82.62-29.376c-7.344-37.332,34.884-55.08,61.2-32.437c0.612,0.612,1.224,0.612,1.836,1.224
				c1.224,3.061,5.508,1.836,5.508-1.836c-2.448-15.912-1.836-32.436,9.792-44.676c20.196-21.42,44.676-3.672,47.736,20.196
				c3.672,24.479-4.896,50.184-23.868,66.096c-2.448,2.448-1.224,5.508,1.224,7.344c25.704,41.616,56.917,81.396,92.414,114.444
				c0,0,0.61,0,0.61,0.612c0.612,1.836,3.672,3.06,6.12,1.224c6.732-5.508,12.854-11.628,19.584-17.748
				c5.508-4.896,12.854-9.792,16.524-16.523c2.447,2.448,4.284,4.896,6.12,8.567c-4.284,3.061-7.956,6.732-11.628,10.404
				c-4.284,4.283-9.182,7.344-11.018,13.464c-0.611,2.448,1.836,5.509,4.284,4.896c0,0,0,0.612,0.612,0.612
				c2.446,3.06,5.508,6.731,6.73,10.403c1.226,3.061,4.284,3.672,6.732,1.836c3.672-3.061,7.344-6.12,11.016-9.181
				c1.836-1.836,1.226-2.447,3.672-0.611c1.226,1.225,2.448,3.061,3.672,4.284c-3.06,4.283-6.73,6.731-11.016,10.403
				c-1.836,1.836-1.836,5.508,0,6.731c1.836,1.836,3.06,3.672,4.896,5.509c2.446,1.836,5.508,1.224,7.344-1.225
				c3.672-1.836,6.12-4.896,8.566-7.956c1.226-1.225,2.448-3.061,4.284-4.284c0.612-1.225,1.836-3.061,3.062-3.672
				c1.836,1.836,3.672,4.896,5.508,6.731c-15.912,12.853-29.376,29.988-42.84,45.288c-2.448,3.061,1.224,6.731,4.283,4.284
				c16.523-14.688,35.495-29.376,48.349-47.736C304.373,252.751,303.149,250.303,301.312,249.692z"/>
		</g>
	</g>
</g>
<g>
</g>
<g>
</g>
<g>
</g>
<g>
</g>
<g>
</g>
<g>
</g>
<g>
</g>
<g>
</g>
<g>
</g>
<g>
</g>
<g>
</g>
<g>
</g>
<g>
</g>
<g>
</g>
<g>
</g>
</svg>
