<?xml version="1.0" encoding="iso-8859-1"?>
<!-- Generator: Adobe Illustrator 17.1.0, SVG Export Plug-In . SVG Version: 6.00 Build 0)  -->
<!DOCTYPE svg PUBLIC "-//W3C//DTD SVG 1.1//EN" "http://www.w3.org/Graphics/SVG/1.1/DTD/svg11.dtd">
<svg version="1.1" id="Capa_1" xmlns="http://www.w3.org/2000/svg" xmlns:xlink="http://www.w3.org/1999/xlink" x="0px" y="0px"
	 viewBox="0 0 199.652 199.652" style="enable-background:new 0 0 199.652 199.652;" xml:space="preserve">
<path d="M176.869,48.227c10.313,0,18.703-8.391,18.703-18.703s-8.391-18.703-18.703-18.703s-18.703,8.391-18.703,18.703
	c0,5.437,2.347,10.325,6.064,13.746l-15.085,29.52c-4.041-1.444-8.388-2.236-12.918-2.236c-10.422,0-19.885,4.169-26.824,10.919
	L45.669,31.078c1.321-2.811,2.064-5.946,2.064-9.252C47.733,9.791,37.942,0,25.907,0S4.081,9.791,4.081,21.826
	s9.791,21.826,21.826,21.826c5.118,0,9.826-1.775,13.552-4.736l63.73,50.392c-3.467,5.778-5.466,12.533-5.466,19.749
	c0,6.737,1.744,13.072,4.797,18.586l-45.647,33.576c-3.812-3.25-8.749-5.219-14.14-5.219c-12.035,0-21.826,9.791-21.826,21.826
	s9.791,21.826,21.826,21.826s21.826-9.791,21.826-21.826c0-3.037-0.625-5.93-1.75-8.56l45.65-33.578
	c7.012,7.308,16.864,11.872,27.768,11.872c4.024,0,7.905-0.623,11.553-1.773l11.65,25.073c-2.64,2.639-4.276,6.284-4.276,10.303
	c0,8.037,6.539,14.576,14.576,14.576s14.576-6.539,14.576-14.576s-6.539-14.576-14.576-14.576c-0.416,0-0.824,0.028-1.231,0.062
	l-11.661-25.096c10.744-6.839,17.892-18.845,17.892-32.496c0-13.137-6.617-24.752-16.688-31.704l15.077-29.505
	C174.331,48.096,175.585,48.227,176.869,48.227z"/>
<g>
</g>
<g>
</g>
<g>
</g>
<g>
</g>
<g>
</g>
<g>
</g>
<g>
</g>
<g>
</g>
<g>
</g>
<g>
</g>
<g>
</g>
<g>
</g>
<g>
</g>
<g>
</g>
<g>
</g>
</svg>
