<?xml version="1.0" encoding="iso-8859-1"?>
<!-- Generator: Adobe Illustrator 16.0.0, SVG Export Plug-In . SVG Version: 6.00 Build 0)  -->
<!DOCTYPE svg PUBLIC "-//W3C//DTD SVG 1.1//EN" "http://www.w3.org/Graphics/SVG/1.1/DTD/svg11.dtd">
<svg version="1.1" id="Capa_1" xmlns="http://www.w3.org/2000/svg" xmlns:xlink="http://www.w3.org/1999/xlink" x="0px" y="0px"
	 width="32px" height="32px" viewBox="0 0 32 32" style="enable-background:new 0 0 32 32;" xml:space="preserve">
<g>
	<g>
		<path d="M11.597,22.961c0,0-0.549-3.604-2.154-3.838c0.764,1.821,0,2.78,0,2.78l-2.154-1.215c0,0,0.764-1.724,0-2.545
			c-0.293,0.566-1.135,0.938-1.135,0.938s0.469-2.35-0.393-2.663C5.646,17.146,4.9,18.145,4.9,18.145l-0.861-4.151
			c0,0,4.758-3.152,1.527-7.949c-0.41,4.21-2.977,4.974-3.289,5.052c-1.606-0.354-0.196-4.698-0.196-4.698s-5.051,4.641,0.586,7.792
			c-3.17,6.147,1.959,10.729,1.959,10.729s-1.469-0.099-1.762-0.861c-1.076,1.077,1.684,2.624,1.684,2.624s-0.451,0.257-0.822,0.822
			c-0.373,0.566,2.799,4.165,6.422,1.802c0.27-0.177,2.664,2.271,9.005,1.764c0.97-0.073,3.267,0.459,3.683-0.195
			c0.416-0.656-0.26-2.074-1.127-2.434c0.69-0.293,2.307,2.108,2.262,1.414C23.251,24.812,11.597,22.961,11.597,22.961z
			 M19.229,29.994c-0.433,0-0.778-0.349-0.778-0.777c0-0.43,0.348-0.777,0.778-0.777s0.776,0.35,0.776,0.777
			C20.005,29.646,19.657,29.994,19.229,29.994z"/>
		<path d="M29.332,17.811c3.172-6.148-1.958-10.729-1.958-10.729s1.469,0.099,1.763,0.862c1.076-1.077-1.685-2.625-1.685-2.625
			s0.449-0.255,0.82-0.822c0.371-0.566-2.801-4.164-6.422-1.801c-0.27,0.177-2.664-2.271-9.004-1.762
			C11.875,1.005,9.58,0.471,9.164,1.127s0.26,2.073,1.125,2.435C9.601,3.854,7.985,1.449,8.028,2.146
			c0.721,5.043,12.375,6.893,12.375,6.893s0.551,3.604,2.154,3.838c-0.764-1.822,0-2.78,0-2.78l2.154,1.215c0,0-0.765,1.723,0,2.545
			c0.291-0.568,1.135-0.939,1.135-0.939s-0.469,2.35,0.391,2.662c0.117-0.724,0.863-1.723,0.863-1.723l0.859,4.149
			c0,0-4.758,3.152-1.525,7.95c0.41-4.21,2.978-4.974,3.289-5.052c1.604,0.354,0.196,4.699,0.196,4.699S34.971,20.961,29.332,17.811
			z M12.772,3.562c-0.43,0-0.779-0.351-0.779-0.779s0.35-0.777,0.779-0.777s0.777,0.35,0.777,0.777
			C13.55,3.211,13.202,3.562,12.772,3.562z"/>
	</g>
</g>
<g>
</g>
<g>
</g>
<g>
</g>
<g>
</g>
<g>
</g>
<g>
</g>
<g>
</g>
<g>
</g>
<g>
</g>
<g>
</g>
<g>
</g>
<g>
</g>
<g>
</g>
<g>
</g>
<g>
</g>
</svg>
