<?xml version="1.0" encoding="iso-8859-1"?>
<!-- Generator: Adobe Illustrator 16.0.0, SVG Export Plug-In . SVG Version: 6.00 Build 0)  -->
<!DOCTYPE svg PUBLIC "-//W3C//DTD SVG 1.1//EN" "http://www.w3.org/Graphics/SVG/1.1/DTD/svg11.dtd">
<svg version="1.1" id="Capa_1" xmlns="http://www.w3.org/2000/svg" xmlns:xlink="http://www.w3.org/1999/xlink" x="0px" y="0px"
	 width="29.91px" height="29.91px" viewBox="0 0 29.91 29.91" style="enable-background:new 0 0 29.91 29.91;" xml:space="preserve"
	>
<g>
	<path d="M1.556,25.055c0,0.406-0.406,4.209,0.656,4.209s0.483-2.217,1.125-1.971c0.642,0.248,6.656,2.695,7.864,2.615
		s1.224-1.693,1.219-2.037c0.854,0.672,2.136,0.393,2.167,0.047c0.031-0.922-1.656-1.453-1.698-2.219
		c-0.043-0.766,6.063-1.666,4.646-4.207c-1.25-2.459-5.241-3.096-5.584-4c-0.344-0.906-0.479-3.789-0.479-3.789
		s1.288-0.425,1.586-1.106c0.298-0.681-0.596-1.264-0.596-1.264s0.322-0.016,0.817-0.042l6.585,8.535l0.025-0.73
		c0.346-3.203,3.812-3.428,3.889-5.652c0.086-2.383-1.104-2.042-1.104-3.475c0-0.004,0-0.01,0-0.015h0.006
		c0-0.014,0-0.028-0.003-0.042h3.089v0.945l2.666-1.149l-2.666-0.865v0.66h-3.061c0.182-1.036,1.151-0.961,1.073-3.122
		C23.695,4,19.724,3.915,19.867,0c-0.021,0.029-0.037,0.057-0.059,0.085L19.822,0L12.66,8.949l-1.384-0.145
		c-0.559-0.383-1.129-0.774-1.502-1.03c0.013-0.016-0.062-0.543,0.145-0.622c0.942,0.029,1.188-0.019,0.954-0.671
		c0.03-0.027,0.198-0.137,0.234-0.215c0.036-0.078-0.048-0.097-0.048-0.097s0.062,0.003,0.106-0.068
		c0.045-0.071-0.078-0.351-0.078-0.351s0.313-0.069,0.381-0.186c0.068-0.117-0.55-0.836-0.527-0.967
		c0.023-0.13,0.127-0.191,0.156-0.224c0.029-0.033,0.099-0.386-0.283-0.947c-0.122-0.179-0.273-0.372-0.476-0.538
		c0.247-0.216,0.73-0.683,0.699-1.003C10.995,1.457,8.604,0.507,6.744,2.5c-1.86,1.994,0.452,4.031,0.452,4.031l0.142-0.118
		c0.216,0.293,0.425,0.493,0.354,0.596c0,0-2.047,0.832-2.261,1.774C5.216,9.725,4.91,11.92,4.91,12.388
		c0,0.468-0.858,0.752-0.646,1.646c0.212,0.894,2.767,2.767,2.881,2.903c0.114,0.138-0.951,0.929-0.62,2.513
		c0.438,2.094,2.208,2.368,2.719,3.219c0.511,0.853,0.9,3.767,0.563,4.199c0,0-5.854-0.935-6.479-1.918
		C2.716,24.247,1.556,24.648,1.556,25.055z M12.431,21.2c0.938,0.155,2.594,1.141,2.594,1.141s-2.002,0.529-2.219,0.828
		C12.647,22.697,12.478,21.45,12.431,21.2z M19.131,1.832c-0.067,2.136,3.146,2.979,3.146,4.551c0,1.316-0.387,1.704-0.642,2.371
		c-0.536,0.131-1.168,0.432-1.556,0.569c-0.451,0.159-3.294,0.236-5.615,0.106c0,0-0.285-0.082-0.514-0.207s-0.68-0.208-0.68-0.208
		L19.131,1.832z M19.132,18.075l-5.241-6.814c1.906-0.1,5.131-0.277,5.861-0.365c0.47-0.057,1.129-0.277,1.693-0.575
		c0.156,1.271,0.83,1.392,0.83,3.125C22.275,15.037,18.98,15.879,19.132,18.075z"/>
</g>
<g>
</g>
<g>
</g>
<g>
</g>
<g>
</g>
<g>
</g>
<g>
</g>
<g>
</g>
<g>
</g>
<g>
</g>
<g>
</g>
<g>
</g>
<g>
</g>
<g>
</g>
<g>
</g>
<g>
</g>
</svg>
