<?xml version="1.0" encoding="iso-8859-1"?>
<!-- Generator: Adobe Illustrator 17.1.0, SVG Export Plug-In . SVG Version: 6.00 Build 0)  -->
<!DOCTYPE svg PUBLIC "-//W3C//DTD SVG 1.1//EN" "http://www.w3.org/Graphics/SVG/1.1/DTD/svg11.dtd">
<svg version="1.1" id="Capa_1" xmlns="http://www.w3.org/2000/svg" xmlns:xlink="http://www.w3.org/1999/xlink" x="0px" y="0px"
	 viewBox="0 0 191.452 191.452" style="enable-background:new 0 0 191.452 191.452;" xml:space="preserve">
<path d="M187.594,191.452c-0.777,0-1.49-0.452-1.817-1.166c-1.366-2.977-5.712-11.216-9.369-13.563
	c-1.573-1.009-3.41-1.963-5.186-2.887c-3.98-2.068-7.739-4.022-9.709-6.942c-1.565-2.319-2.359-4.412-2.757-5.825
	c-1.963-0.005-5.276-0.152-8.184-0.944c-1.854-0.506-3.338-1.311-4.774-2.089c-2.083-1.129-4.238-2.297-8.031-2.921
	c-6.435-1.058-9.259-0.913-9.287-0.913c-0.804,0.05-1.55-0.388-1.906-1.103c-0.357-0.714-0.259-1.572,0.256-2.183
	c0.287-0.34,7.143-8.345,17.937-10.226c6.37-1.11,9.881-0.95,12.204-0.841c1.383,0.064,2.218,0.103,3.005-0.134
	c2.902-0.871,3.832-6.209,2.617-15.03c-1.982-14.393-8.578-32.262-18.848-39.739c-8.905-6.483-20.293-9.701-24.64-10.758
	c-0.583,2.507-1.382,7.614-0.286,13.947c1.586,9.166,5.594,14.735,5.634,14.791c0.446,0.61,0.509,1.42,0.164,2.092
	c-0.345,0.672-1.05,1.106-1.795,1.087c-0.51-0.004-12.624-0.276-24.221-15.479c-7.391-9.688-9.993-15.3-10.894-18.226
	c-4.003,0.894-13.195,2.373-23.84,0.258c-3.032-0.602-5.814-1.201-8.269-1.729c-8.813-1.896-14.632-3.152-21.17-2.455
	c-4.719,0.502-10.654,1.936-15.423,3.088c-4.242,1.025-7.592,1.834-9.442,1.882c-3.104,0.073-5.728-1.673-7.167-3.339
	c-1.277-1.479-1.843-3.086-1.593-4.524c0.158-0.907,0.521-2.993,17.366-11.89c-0.971-2.912-1.708-8.699,4.09-15.039
	c6.577-7.192,17.051-16.267,39.866-22.662c8.037-2.253,12.913-2.772,17.628-3.274c5.91-0.629,11.014-1.173,21.516-5.096
	c16.841-6.29,23.809-8.894,37.833-7.034c11.175,1.482,14.045,5.503,14.336,5.958c0.356,0.556,0.414,1.252,0.156,1.86
	s-0.8,1.049-1.448,1.179c-0.108,0.022-10.874,2.208-15.7,5.656c-2.699,1.928-3.568,3.469-3.481,4.268
	c0.071,0.659,0.931,1.387,2.358,1.999c4.74,2.032,30.99,18.178,41.326,45.871c9.303,24.925,5.691,50.95,4.332,60.748
	c-0.116,0.838-0.216,1.559-0.291,2.15c-0.146,1.165-0.313,2.345-0.482,3.533c-0.877,6.164-1.784,12.538,0.5,17.463
	c0.814,1.756,1.843,3.6,2.933,5.553c2.846,5.102,6.072,10.885,6.787,17.534c0.967,8.99-0.832,15.379-0.909,15.646
	c-0.231,0.804-0.938,1.378-1.772,1.441C187.694,191.45,187.643,191.452,187.594,191.452z M160.362,157.039
	c1.025,0,1.894,0.781,1.991,1.813c0.001,0.011,0.304,2.59,2.474,5.805c1.402,2.077,4.877,3.883,8.239,5.63
	c1.856,0.965,3.775,1.962,5.501,3.069c3.022,1.939,5.944,6.237,8,9.797c0.182-2.292,0.226-5.154-0.12-8.367
	c-0.627-5.84-3.513-11.012-6.303-16.013c-1.126-2.02-2.19-3.927-3.068-5.819c-2.782-5.999-1.79-12.969-0.831-19.709
	c0.166-1.165,0.331-2.323,0.474-3.465c0.076-0.606,0.178-1.345,0.297-2.204c1.322-9.523,4.833-34.822-4.117-58.799
	c-9.842-26.368-34.673-41.672-39.154-43.593c-3.633-1.557-4.593-3.712-4.759-5.245c-0.285-2.641,1.442-5.316,5.133-7.953
	c3.403-2.43,8.97-4.229,12.858-5.274c-1.771-0.79-4.45-1.634-8.402-2.158c-13.029-1.726-19.26,0.599-35.908,6.816
	c-10.975,4.099-16.569,4.695-22.492,5.326c-4.551,0.485-9.258,0.986-16.973,3.148c-21.839,6.122-31.776,14.71-37.993,21.509
	c-6.098,6.668-2.808,12.137-2.773,12.191c0.295,0.473,0.379,1.047,0.232,1.584c-0.147,0.538-0.511,0.99-1.005,1.247
	c-7.059,3.68-15.214,8.426-16.876,10.101c0.094,0.269,0.343,0.731,0.85,1.251c0.836,0.857,2.275,1.775,3.821,1.719
	c1.426-0.036,4.913-0.879,8.605-1.771c4.883-1.18,10.96-2.648,15.94-3.178c7.173-0.764,13.575,0.614,22.434,2.521
	c2.44,0.525,5.206,1.121,8.207,1.717c13.017,2.585,23.902-0.667,24.011-0.7c0.619-0.189,1.292-0.067,1.805,0.328
	s0.803,1.014,0.778,1.661l0,0c0.006,0,0.385,4.861,10.541,18.175c6.469,8.481,13.067,11.792,17.119,13.083
	c-1.402-2.838-3.092-7.09-4.022-12.465c-1.755-10.142,0.824-17.381,0.934-17.684c0.337-0.922,1.294-1.464,2.257-1.278
	c0.652,0.126,16.11,3.179,28.031,11.857c11.989,8.728,18.513,28.31,20.457,42.426c1.582,11.488-0.195,17.836-5.431,19.407
	c-1.44,0.432-2.719,0.373-4.339,0.298c-2.275-0.106-5.394-0.249-11.333,0.786c-5.325,0.928-9.603,3.639-12.316,5.82
	c1.422,0.146,3.173,0.371,5.279,0.717c4.459,0.733,7.025,2.125,9.29,3.352c1.348,0.731,2.513,1.362,3.92,1.746
	c3.746,1.021,8.582,0.778,8.631,0.775C160.29,157.04,160.326,157.039,160.362,157.039z M169.617,81.507
	c-0.885,0-1.693-0.591-1.932-1.486c-0.027-0.101-2.759-10.221-8.464-19.407C151.12,47.573,137.8,38.97,137.666,38.886
	c-0.93-0.595-1.203-1.831-0.609-2.762c0.594-0.931,1.83-1.205,2.761-0.611c0.576,0.368,14.208,9.155,22.801,22.99
	c6.031,9.71,8.817,20.055,8.933,20.49c0.283,1.067-0.352,2.162-1.419,2.446C169.96,81.485,169.787,81.507,169.617,81.507z
	 M37.531,53.237c-0.862,0-1.658-0.563-1.917-1.432c-0.314-1.059,0.29-2.172,1.349-2.486l1.497-0.444
	c1.055-0.313,2.171,0.29,2.486,1.349c0.314,1.059-0.29,2.172-1.349,2.486l-1.497,0.444C37.911,53.21,37.72,53.237,37.531,53.237z"/>
<g>
</g>
<g>
</g>
<g>
</g>
<g>
</g>
<g>
</g>
<g>
</g>
<g>
</g>
<g>
</g>
<g>
</g>
<g>
</g>
<g>
</g>
<g>
</g>
<g>
</g>
<g>
</g>
<g>
</g>
</svg>
