<?xml version="1.0" encoding="iso-8859-1"?>
<!-- Generator: Adobe Illustrator 16.0.0, SVG Export Plug-In . SVG Version: 6.00 Build 0)  -->
<!DOCTYPE svg PUBLIC "-//W3C//DTD SVG 1.1//EN" "http://www.w3.org/Graphics/SVG/1.1/DTD/svg11.dtd">
<svg version="1.1" id="Capa_1" xmlns="http://www.w3.org/2000/svg" xmlns:xlink="http://www.w3.org/1999/xlink" x="0px" y="0px"
	 width="565.775px" height="565.775px" viewBox="0 0 565.775 565.775" style="enable-background:new 0 0 565.775 565.775;"
	 xml:space="preserve">
<g>
	<g id="Layer_2_15_">
		<path d="M167.999,189.539c-19.976,22.3-30.829,51.351-29.854,80.822c0.191,2.888,0.125,4.743,0.612,8.836
			c0.42,3.557,0.746,7.381,1.444,10.499c1.167,6.504,2.802,12.92,5.011,19.088c4.274,12.393,10.844,23.666,18.456,33.143
			c15.338,19.184,34.492,30.295,51.332,37.045c17.107,6.59,32.599,9.123,45.575,9.707c12.996,0.516,23.562-0.631,31.298-2.611
			c0.287-0.066,0.498-0.152,0.775-0.219c42.027-1.453,75.678-35.898,75.678-78.279c0-43.309-35.105-78.413-78.414-78.413
			c-43.308,0-78.412,35.104-78.412,78.413c0,3.031,0.21,6.006,0.545,8.951c-2.142-2.268-4.16-4.676-5.986-7.24
			c-7.43-10.814-12.049-23.629-12.03-40.869c-0.574-13.417,5.565-29.51,16.142-42.458c10.777-12.948,26.498-23.275,45.89-28.697
			c4.858-1.291,9.821-2.553,15.033-3.28c2.667-0.498,4.934-0.66,7.401-1.014l8.454-0.622c9.916-0.497,20.109,0.44,29.949,3.089
			c19.775,5.087,37.973,16.792,50.996,32.895c13.139,16.007,20.924,36.595,23.553,57.213c2.707,21.477,0.766,42.217-6.234,60.08
			c-7.238,17.691-19.373,32.283-33.564,42.496c-13.99,10.51-29.281,17.365-43.232,22.09c-13.99,4.791-26.813,7.41-37.417,9.17
			c-21.286,3.443-33.727,3.279-33.727,3.279l-0.172,3.205c0,0,12.546,1.73,34.664,0.764c11.035-0.611,24.508-1.846,39.76-5.26
			c15.195-3.404,32.447-8.768,49.602-19.01c17.174-9.992,33.803-25.98,44.887-47.096c5.383-10.584,9.227-22.213,11.791-34.301
			c1.021-6.053,2.16-12.211,2.486-18.426l0.381-4.686c0.049-0.918,0.154-1.271,0.164-2.648l0.076-2.172
			c0.115-2.84,0.209-5.766,0.096-9.256c-0.307-25.886-7.574-53.139-23.229-76.978c-15.539-23.763-39.426-43.051-67.119-53.254
			c-13.799-5.221-28.516-8.186-43.395-8.931l-10.136-0.229c-3.7,0.095-7.621,0.105-11.083,0.401
			c-7.095,0.344-14.258,1.368-21.382,2.601C216.242,152.58,187.65,166.818,167.999,189.539z"/>
		<path d="M339.617,108.305L275.94,0c0,0-59.842,109.854-57.624,109.051c19.307-6.98,40.105-10.863,61.822-10.863
			C300.994,98.188,320.951,101.86,339.617,108.305z"/>
		<path d="M349.381,111.881c39.473,16.218,71.938,45.872,91.818,83.28c2.803-7.143,30.447-119.713,30.447-119.713L349.381,111.881z"
			/>
		<path d="M462.562,280.622c0,22.041-4.113,43.08-11.275,62.644l108.555-71.098l-111.9-63.16
			C457.342,231.001,462.562,255.195,462.562,280.622z"/>
		<path d="M448.553,350.742c-18.359,44.037-53.445,79.35-97.355,97.939l129.219,27.846L448.553,350.742z"/>
		<polygon points="220.64,452.918 220.688,452.938 220.679,452.918 		"/>
		<path d="M220.688,452.938l64.796,112.838l54.162-112.857c-18.676,6.445-38.643,10.127-59.508,10.127
			C259.292,463.045,239.345,459.373,220.688,452.938z"/>
		<path d="M116.514,360.879L89.816,476.527l119.799-27.645C168.917,431.805,135.888,400.314,116.514,360.879z"/>
		<path d="M97.714,280.622c0-20.703,3.615-40.526,9.964-59.068L5.934,280.793l106.325,71.269
			C102.907,330.117,97.714,305.971,97.714,280.622z"/>
		<path d="M113.885,205.795c17.384-38.575,47.678-70.064,85.489-88.788c-10.997-3.595-128.788-31.958-128.788-31.958
			L113.885,205.795z"/>
	</g>
</g>
<g>
</g>
<g>
</g>
<g>
</g>
<g>
</g>
<g>
</g>
<g>
</g>
<g>
</g>
<g>
</g>
<g>
</g>
<g>
</g>
<g>
</g>
<g>
</g>
<g>
</g>
<g>
</g>
<g>
</g>
</svg>
