<?xml version="1.0" encoding="iso-8859-1"?>
<!-- Generator: Adobe Illustrator 19.0.0, SVG Export Plug-In . SVG Version: 6.00 Build 0)  -->
<svg version="1.1" id="Capa_1" xmlns="http://www.w3.org/2000/svg" xmlns:xlink="http://www.w3.org/1999/xlink" x="0px" y="0px"
	 viewBox="0 0 149.07 149.07" style="enable-background:new 0 0 149.07 149.07;" xml:space="preserve">
<g>
	<path style="fill:#010002;" d="M32.173,149.07c-4.076,0-8.999-1.285-14.502-5.725c-0.936-0.757-1.455-1.916-1.403-3.119
		c0.052-1.21,0.676-2.317,1.678-2.992c0.067-0.052,6.831-4.678,9.244-12.111c0.149-2.569,1.136-12.861,7.514-18.511
		c3.245-2.874,7.396-4.158,12.103-3.69c0.616,0.067,1.203,0.275,1.723,0.616c1.173,0.772,11.509,7.596,13.41,9.103
		c0.423,0.334,0.765,0.75,1.017,1.233c0.163,0.319,4.017,7.952,0.468,16.566c-3.044,7.373-10.366,12.972-21.778,16.64l-0.854,0.29
		C38.699,148.075,35.766,149.07,32.173,149.07z M26.388,140.011c5.012,2.495,8.806,1.218,11.962,0.156l0.958-0.319
		c9.007-2.896,14.895-7.121,17.048-12.207c1.76-4.173,0.713-8.019,0.134-9.579c-2.116-1.507-7.514-5.116-11.309-7.626
		c-2.153,0.022-3.95,0.564-5.42,1.856c-3.891,3.43-4.923,10.975-4.997,13.588c-0.007,0.334-0.067,0.668-0.156,0.988
		C32.871,132.705,29.269,137.175,26.388,140.011z"/>
	<path style="fill:#010002;" d="M63.344,117.03c-2.658,0-5.888-1.069-9.482-3.2c-1.314-0.78-12.786-7.834-9.98-14.709
		c10.47-25.484,75.092-102.766,86.022-98.986c0.423,0.156,4.099,1.648,2.502,6.705c-9.334,29.842-48.777,89.527-63.627,107.808l0,0
		C67.487,116.235,65.631,117.03,63.344,117.03z M51.144,101.467c1.188,2.762,9.044,7.99,11.97,7.99c0.03,0,0.059,0,0.089,0
		c13.581-16.863,46.802-66.85,59.15-97.212C104.881,27.823,61.792,76.377,51.144,101.467z"/>
</g>
<g>
</g>
<g>
</g>
<g>
</g>
<g>
</g>
<g>
</g>
<g>
</g>
<g>
</g>
<g>
</g>
<g>
</g>
<g>
</g>
<g>
</g>
<g>
</g>
<g>
</g>
<g>
</g>
<g>
</g>
</svg>
